<svg width="24" height="24" viewBox="0 0 24 24" fill="none" xmlns="http://www.w3.org/2000/svg">
<path fill-rule="evenodd" clip-rule="evenodd" d="M9.88303 3.4441C10.4269 2.54755 11.3994 2 12.448 2C13.4967 2 14.4692 2.54753 15.013 3.44411L15.0159 3.44886L23.4859 17.5889L23.494 17.6027C24.027 18.5258 24.0302 19.6624 23.5024 20.5885C22.9745 21.5145 21.9949 22.091 20.929 22.1027L20.918 22.1028L3.96703 22.1027C2.90115 22.091 1.92154 21.5145 1.39367 20.5885C0.865809 19.6624 0.868988 18.5258 1.40203 17.6027L1.41015 17.5889L9.88303 3.4441ZM11.5942 4.47942L3.13071 18.6086C2.95632 18.9152 2.95637 19.2913 3.13122 19.5981C3.30642 19.9054 3.63091 20.0972 3.98441 20.1027H20.9116C21.2651 20.0972 21.5896 19.9054 21.7648 19.5981C21.9397 19.2913 21.9397 18.9153 21.7653 18.6086L13.303 4.48137L13.3018 4.4794C13.1203 4.18171 12.7968 4 12.448 4C12.0992 4 11.7757 4.18172 11.5942 4.47942Z" fill="#9B0000"/>
<path fill-rule="evenodd" clip-rule="evenodd" d="M12.448 8.103C13.0003 8.103 13.448 8.55072 13.448 9.103V13.103C13.448 13.6553 13.0003 14.103 12.448 14.103C11.8957 14.103 11.448 13.6553 11.448 13.103V9.103C11.448 8.55072 11.8957 8.103 12.448 8.103Z" fill="#9B0000"/>
<path fill-rule="evenodd" clip-rule="evenodd" d="M11.448 17.103C11.448 16.5507 11.8957 16.103 12.448 16.103H12.458C13.0103 16.103 13.458 16.5507 13.458 17.103C13.458 17.6553 13.0103 18.103 12.458 18.103H12.448C11.8957 18.103 11.448 17.6553 11.448 17.103Z" fill="#9B0000"/>
</svg>
