<svg width="40" height="40" viewBox="0 0 40 40" fill="none" xmlns="http://www.w3.org/2000/svg">
<g filter="url(#filter0_i_1_2)">
<path d="M20 32C28.8366 32 36 24.8366 36 16C36 7.16344 28.8366 0 20 0C11.1634 0 4 7.16344 4 16C4 24.8366 11.1634 32 20 32Z" fill="#9A2513"/>
</g>
<path d="M21.1429 20.5625V18.8661C21.1429 18.7827 21.1131 18.7143 21.0536 18.6607C21 18.6012 20.9345 18.5714 20.8571 18.5714H19.1429C19.0655 18.5714 18.997 18.6012 18.9375 18.6607C18.8839 18.7143 18.8571 18.7827 18.8571 18.8661V20.5625C18.8571 20.6458 18.8839 20.7173 18.9375 20.7768C18.997 20.8304 19.0655 20.8571 19.1429 20.8571H20.8571C20.9345 20.8571 21 20.8304 21.0536 20.7768C21.1131 20.7173 21.1429 20.6458 21.1429 20.5625ZM21.125 17.2232L21.2857 13.125C21.2857 13.0536 21.256 12.997 21.1964 12.9554C21.119 12.8899 21.0476 12.8571 20.9821 12.8571H19.0179C18.9524 12.8571 18.881 12.8899 18.8036 12.9554C18.744 12.997 18.7143 13.0595 18.7143 13.1429L18.8661 17.2232C18.8661 17.2827 18.8958 17.3333 18.9554 17.375C19.0149 17.4107 19.0863 17.4286 19.1696 17.4286H20.8214C20.9048 17.4286 20.9732 17.4107 21.0268 17.375C21.0863 17.3333 21.119 17.2827 21.125 17.2232ZM21 8.88393L27.8571 21.4554C28.0655 21.8304 28.0595 22.2054 27.8393 22.5804C27.7381 22.753 27.5982 22.8899 27.4196 22.9911C27.247 23.0923 27.0595 23.1429 26.8571 23.1429H13.1429C12.9405 23.1429 12.75 23.0923 12.5714 22.9911C12.3988 22.8899 12.2619 22.753 12.1607 22.5804C11.9405 22.2054 11.9345 21.8304 12.1429 21.4554L19 8.88393C19.1012 8.6994 19.2411 8.55357 19.4196 8.44643C19.5982 8.33928 19.7917 8.28571 20 8.28571C20.2083 8.28571 20.4018 8.33928 20.5804 8.44643C20.7589 8.55357 20.8988 8.6994 21 8.88393Z" fill="white"/>
<defs>
<filter id="filter0_i_1_2" x="4" y="0" width="32" height="36" filterUnits="userSpaceOnUse" color-interpolation-filters="sRGB">
<feFlood flood-opacity="0" result="BackgroundImageFix"/>
<feBlend mode="normal" in="SourceGraphic" in2="BackgroundImageFix" result="shape"/>
<feColorMatrix in="SourceAlpha" type="matrix" values="0 0 0 0 0 0 0 0 0 0 0 0 0 0 0 0 0 0 127 0" result="hardAlpha"/>
<feOffset dy="4"/>
<feGaussianBlur stdDeviation="2"/>
<feComposite in2="hardAlpha" operator="arithmetic" k2="-1" k3="1"/>
<feColorMatrix type="matrix" values="0 0 0 0 0 0 0 0 0 0 0 0 0 0 0 0 0 0 0.25 0"/>
<feBlend mode="normal" in2="shape" result="effect1_innerShadow_1_2"/>
</filter>
</defs>
</svg>
