<?xml version="1.0" encoding="UTF-8"?>
<svg width="124px" height="126px" viewBox="0 0 124 126" version="1.1" xmlns="http://www.w3.org/2000/svg" xmlns:xlink="http://www.w3.org/1999/xlink">
    <title>noun-build-1909170 2</title>
    <g id="Page-1" stroke="none" stroke-width="1" fill="none" fill-rule="evenodd">
        <g id="Artboard" transform="translate(-21.000000, -13.000000)" fill-rule="nonzero">
            <g id="noun-build-1909170-2" transform="translate(21.397258, 13.196061)">
                <g id="noun-build-1909170" transform="translate(-0.000000, 0.000000)">
                    <path d="M92.6027419,72.6185133 L92.6027419,57.9889856 L86.1862748,57.9889856 C85.6020451,55.9096215 84.7760312,53.9059271 83.7251497,52.018938 L88.269406,47.4743024 L77.9221756,37.1270642 L73.3862489,41.7287767 C71.5042972,40.6694356 69.4997523,39.844438 67.4173316,39.2721881 L67.4173316,32.8039391 L52.78816,32.8039391 L52.78816,39.2200192 C50.7086513,39.8043493 48.7048284,40.6304911 46.8177331,41.6815236 L42.2734767,37.136888 L31.9360469,47.4743024 L36.4719812,52.0106161 C35.4100932,53.8952952 34.5832966,55.9030651 34.0100975,57.9889856 L27.6027419,57.9889856 L27.6027419,72.6185133 L34.01924,72.6185133 C34.6034677,74.6979991 35.429481,76.7018193 36.4803651,78.5889402 L31.9360469,83.1331966 L42.2734535,93.4706032 L46.8093956,88.9346611 C48.6942676,89.9964213 50.7021443,90.8232106 52.7881368,91.3965449 L52.7881368,97.8039391 L67.4173238,97.8039391 L67.4173238,91.3874798 C69.4967961,90.803213 71.5006118,89.9772015 73.3877508,88.9263547 L77.9320071,93.470611 L88.269406,83.1331966 L83.7334716,78.5968829 C84.7954245,76.7122352 85.6222245,74.7044572 86.1953554,72.6185133 L92.6027419,72.6185133 Z M59.6025171,83.8039391 C49.6614007,83.8039391 41.6027419,75.744854 41.6027419,65.8037376 C41.6027419,55.8626212 49.6618038,47.8039391 59.6029202,47.8039391 C69.5440366,47.8039391 77.6027419,55.8629778 77.6027419,65.8040942 C77.5914492,75.740601 69.5390241,83.7928562 59.6025171,83.8039391 Z" id="Shape" fill="#2273C3"></path>
                    <path d="M5.05489191,84.7702691 C3.95796658,84.7702691 2.9895957,84.0539365 2.66674191,83.0055991 C-2.45284843,66.3430463 -0.131945127,48.2816554 9.03405791,33.4548128 C18.200061,18.6279703 33.3192079,8.47849582 50.5129019,5.61008914 C51.8752752,5.38572346 53.1615812,6.30826088 53.3859469,7.67063414 C53.6103126,9.0330074 52.6877752,10.3193135 51.3254019,10.5436791 C35.5564885,13.1775777 21.6911436,22.4879724 13.2852565,36.087131 C4.87936941,49.6862896 2.75065178,66.2513069 7.44503191,81.5339391 C7.6780762,82.2924398 7.53745066,83.1165229 7.06605106,83.7548138 C6.59465146,84.3931047 5.84838593,84.7702691 5.05489191,84.7702691 L5.05489191,84.7702691 Z" id="Path" fill="#BED9F4"></path>
                    <path d="M60.4025419,125.608157 C42.5613213,125.621957 25.6296953,117.735145 14.1608419,104.068589 C13.2748574,103.011783 13.4119673,101.437135 14.4672726,100.549363 C15.5225779,99.661592 17.0974563,99.7960374 17.9870119,100.849839 C28.4351656,113.281545 43.8112028,120.503725 60.0500625,120.607004 C76.2889222,120.710283 91.7555781,113.684264 102.361012,101.386459 C103.263059,100.341216 104.841649,100.225132 105.886892,101.127179 C106.932135,102.029226 107.048219,103.607816 106.146172,104.653059 C94.6732595,117.960663 77.9729722,125.611036 60.4025419,125.608157 Z" id="Path" fill="#BED9F4"></path>
                    <path d="M114.487022,88.4264991 C113.664093,88.4264991 112.894145,88.020423 112.42794,87.3422891 C111.961735,86.6641552 111.858936,85.8000859 112.153022,85.0314991 C118.067771,69.549879 116.748162,52.2342681 108.555661,37.8277507 C100.363159,23.4212332 86.1565688,13.4340146 69.8273519,10.6017891 C68.9453759,10.4528027 68.210219,9.84392202 67.8995615,9.0051309 C67.5889039,8.16633977 67.7500953,7.2254845 68.3222511,6.53794079 C68.894407,5.85039707 69.7903208,5.52095849 70.6715919,5.67405914 C88.4762587,8.75890908 103.967467,19.6465882 112.900685,35.3539137 C121.833903,51.0612392 123.272381,69.9411195 116.821982,86.8205391 C116.45133,87.7877403 115.522812,88.4264991 114.487022,88.4264991 Z" id="Path" fill="#BED9F4"></path>
                    <path d="M51.1662219,16.1540414 C50.1551825,16.1540414 49.2437636,15.5447843 48.856876,14.6106972 C48.4699884,13.67661 48.6838046,12.6014476 49.3986419,11.8864591 L53.0841919,8.20045914 L49.1515719,4.26731914 C48.1753644,3.2911089 48.1753667,1.70836162 49.1515769,0.732154144 C50.1277872,-0.244053334 51.7105344,-0.244051095 52.6867419,0.732159144 L60.1554919,8.20041914 L52.9338119,15.4216091 C52.4656049,15.8913137 51.8294258,16.154925 51.1662219,16.1540414 Z" id="Path" fill="#BED9F4"></path>
                    <path d="M111.858112,92.7555991 L108.018272,83.2927091 C107.502802,82.0142497 108.119504,80.5597947 109.396818,80.0414922 C110.674132,79.5231897 112.12995,80.1366671 112.651082,81.4128291 L114.611082,86.2429091 L119.765382,84.1515991 C121.043841,83.6361288 122.498296,84.2528311 123.016599,85.530145 C123.534901,86.8074589 122.921424,88.2632771 121.645262,88.7844091 L111.858112,92.7555991 Z" id="Path" fill="#BED9F4"></path>
                    <path d="M11.8786219,107.803939 C11.1231529,107.803939 10.4081007,107.462726 9.93303606,106.875319 C9.4579714,106.287912 9.27376984,105.517296 9.43184191,104.778549 L11.6491319,94.4513991 L21.6339919,96.5949391 C22.9827017,96.8859912 23.8406414,98.2146395 23.5509545,99.5636432 C23.2612675,100.912647 21.9334881,101.771931 20.5841919,101.483609 L15.4880019,100.389859 L14.3205219,105.828339 C14.0731462,106.979621 13.0561793,107.80239 11.8786219,107.803939 Z" id="Path" fill="#BED9F4"></path>
                </g>
            </g>
        </g>
    </g>
</svg>